<?xml version="1.0" encoding="UTF-8"?>
<svg xmlns="http://www.w3.org/2000/svg" xmlns:xlink="http://www.w3.org/1999/xlink" width="100px" height="100px" viewBox="0 0 100 100" version="1.1">
<defs>
<linearGradient id="linear0" gradientUnits="userSpaceOnUse" x1="-142.53" y1="85.47" x2="-36.47" y2="191.53" gradientTransform="matrix(0.000000000000000082,-1.333333,1.333333,0.000000000000000082,-134.666667,-69.333333)">
<stop offset="0" style="stop-color:rgb(78.431373%,31.764706%,10.588235%);stop-opacity:1;"/>
<stop offset="1" style="stop-color:rgb(100%,60%,0%);stop-opacity:1;"/>
</linearGradient>
</defs>
<g id="surface1">
<rect x="0" y="0" width="100" height="100" style="fill:url(#linear0);stroke:none;"/>
<path style=" stroke:none;fill-rule:nonzero;fill:rgb(100%,100%,100%);fill-opacity:1;" d="M 50 86.011719 C 49.765625 86.015625 49.535156 85.957031 49.332031 85.839844 L 18.667969 68.132812 C 18.253906 67.894531 18 67.453125 18 66.972656 L 18 31.558594 C 18 31.082031 18.253906 30.640625 18.667969 30.398438 L 46.667969 14.160156 C 47.078125 13.921875 47.585938 13.921875 48 14.160156 C 48.414062 14.398438 48.667969 14.839844 48.667969 15.320312 L 48.667969 30.667969 C 48.667969 31.144531 48.414062 31.585938 48 31.828125 L 34 40 L 34 58.492188 L 50 67.734375 L 63.960938 59.734375 C 64.371094 59.496094 64.878906 59.496094 65.292969 59.734375 L 78.625 67.425781 C 79.042969 67.664062 79.300781 68.105469 79.300781 68.585938 C 79.300781 69.066406 79.042969 69.511719 78.625 69.746094 L 50.667969 85.839844 C 50.464844 85.957031 50.234375 86.015625 50 86.011719 Z M 20.667969 66.199219 L 50 83.148438 L 75.332031 68.480469 L 64.667969 62.320312 L 50.667969 70.441406 C 50.253906 70.679688 49.746094 70.679688 49.332031 70.441406 L 32 60.425781 C 31.585938 60.1875 31.332031 59.746094 31.332031 59.265625 L 31.332031 39.265625 C 31.332031 38.789062 31.585938 38.347656 32 38.105469 L 46 29.960938 L 46 17.625 L 20.667969 32.292969 Z M 20.667969 66.199219 "/>
<path style=" stroke:none;fill-rule:nonzero;fill:rgb(100%,100%,100%);fill-opacity:1;" d="M 80.667969 65.238281 C 80.433594 65.242188 80.203125 65.183594 80 65.066406 L 66.667969 57.398438 C 66.246094 57.171875 66.007812 56.714844 66.066406 56.238281 L 66.066406 40 L 52 32 C 51.585938 31.761719 51.332031 31.316406 51.332031 30.839844 L 51.332031 15.464844 C 51.332031 14.988281 51.585938 14.546875 52 14.308594 C 52.417969 14.082031 52.917969 14.082031 53.332031 14.308594 L 81.332031 30.398438 C 81.746094 30.640625 82 31.082031 82 31.558594 L 82 63.90625 C 82 64.644531 81.402344 65.238281 80.667969 65.238281 Z M 68.667969 55.480469 L 79.332031 61.585938 L 79.332031 32.332031 L 54 17.773438 L 54 30.078125 L 68 38.078125 C 68.410156 38.316406 68.664062 38.753906 68.667969 39.226562 Z M 68.667969 55.480469 "/>
<path style=" stroke:none;fill-rule:nonzero;fill:rgb(100%,100%,100%);fill-opacity:1;" d="M 43.332031 59.320312 L 43.332031 39.320312 L 46 39.320312 L 46 48.425781 L 54.667969 39.320312 L 58.1875 39.320312 L 49.148438 49.054688 L 58.972656 59.320312 L 55.332031 59.320312 L 46 49.988281 L 46 59.320312 Z M 43.332031 59.320312 "/>
</g>
</svg>
